<svg width="1920" height="435" viewBox="0 0 1920 435" fill="none" xmlns="http://www.w3.org/2000/svg">
<path opacity="0.35" d="M1800.89 34.8171C1833.08 34.8171 1858.32 42.7563 1876.54 58.697L1876.54 58.697C1894.77 74.3547 1903.86 96.5015 1903.86 125.064C1903.86 143.627 1899.31 159.856 1890.2 173.731L1890.2 173.735C1881.2 187.156 1869.46 197.687 1855 205.332L1920.44 321.029L1920.86 321.775L1850.07 321.775L1849.93 321.504L1796.64 217.95L1774.23 217.95L1774.23 321.775L1712.8 321.775L1712.8 34.8171L1800.89 34.8171ZM1774.23 187.915L1796.07 187.915C1806.83 187.915 1815.04 186.159 1820.77 182.707C1826.77 178.974 1831.09 172.786 1833.69 164.075C1836.3 155.344 1837.61 143.228 1837.61 127.704C1837.61 104.848 1834.25 88.7028 1827.63 79.156L1827.62 79.1492L1827.62 79.1414C1821.32 69.358 1810.41 64.4128 1794.75 64.4128L1774.23 64.4128L1774.23 187.915Z" stroke="#C9A35B"/>
<path opacity="0.35" d="M1574.33 125.589C1566.24 125.589 1559.8 127.616 1554.95 131.623C1550.39 135.631 1546.77 142.7 1544.16 152.929L1544.16 152.932C1541.57 162.757 1539.97 176.766 1539.37 194.979L1605.36 194.979L1605.36 185.359C1605.36 163.074 1603.02 147.641 1598.41 138.961L1598.41 138.955C1596.11 134.489 1592.97 131.155 1588.97 128.935C1584.98 126.712 1580.1 125.589 1574.33 125.589ZM1657.59 283.026C1657.59 283.266 1657.52 283.53 1657.42 283.793C1657.31 284.065 1657.15 284.378 1656.96 284.729C1656.56 285.43 1655.97 286.317 1655.2 287.387C1653.66 289.528 1651.35 292.435 1648.28 296.105L1648.28 296.104C1642.39 303.501 1633.57 310.429 1621.86 316.899C1610.39 323.402 1596.28 326.639 1579.58 326.639C1547.08 326.639 1521.69 317.665 1503.47 299.658L1503.46 299.652C1485.53 281.338 1476.61 253.178 1476.61 215.276C1476.61 177.675 1485.11 148.679 1502.19 128.361L1503 127.401C1520.63 106.748 1544.42 96.4327 1574.33 96.4327C1601.59 96.4328 1622.76 105.125 1637.76 122.556C1653.05 139.689 1660.66 164.316 1660.66 196.359C1660.66 203.701 1660.08 209.891 1658.9 214.922L1658.3 218.304C1657.75 221.332 1657.36 223.299 1657.14 224.194L1657.05 224.574L1539.36 224.574C1539.7 250.684 1543.49 269.162 1550.66 280.11C1558.13 290.787 1570.07 296.163 1586.59 296.163C1596.44 296.163 1605.11 294.126 1612.61 290.069C1620.17 285.689 1626.11 281.031 1630.44 276.097C1632.63 273.464 1634.26 271.422 1635.34 269.968C1635.89 269.239 1636.29 268.665 1636.55 268.243C1636.68 268.032 1636.78 267.867 1636.83 267.746C1636.87 267.66 1636.88 267.618 1636.89 267.609L1636.89 266.603L1637.7 267.234L1657.4 282.631L1657.59 282.781L1657.59 283.026Z" stroke="#C9A35B"/>
<path opacity="0.35" d="M1427.81 95.9475C1433.7 95.9475 1440.3 96.834 1447.63 98.5999L1452.83 99.8098C1457.54 100.91 1460.77 101.68 1462.53 102.121L1462.96 102.23L1462.9 102.67L1457.65 143.584L1457.58 144.143L1457.03 144.005C1454.7 143.421 1449.46 142.25 1441.28 140.49L1441.28 140.49C1433.42 138.735 1426.6 137.862 1420.8 137.862C1414.2 137.862 1408.78 139.876 1404.5 143.885L1404.5 143.886C1400.46 147.661 1397.43 151.716 1395.42 156.049C1394.4 158.245 1393.64 159.993 1393.13 161.298C1392.88 161.951 1392.69 162.487 1392.57 162.907C1392.45 163.34 1392.4 163.613 1392.4 163.758L1392.4 321.754L1333.16 321.754L1333.16 100.786L1375.21 100.786L1375.3 101.16L1384.84 137.741L1385.73 137.741C1385.81 136.777 1386.11 135.387 1386.6 133.6C1387.19 131.459 1388.07 128.697 1389.24 125.32C1391.6 118.198 1395.88 111.536 1402.06 105.333L1402.06 105.325L1402.68 104.747C1409.14 98.8694 1417.53 95.9475 1427.81 95.9475Z" stroke="#C9A35B"/>
<path opacity="0.35" d="M1184.27 95.95C1217.37 95.95 1242.77 105.958 1260.41 126.033L1260.41 126.033C1278.33 146.098 1287.25 174.535 1287.25 211.273C1287.25 247.724 1278.03 276.161 1259.53 296.517L1259.53 296.516C1241.32 316.583 1216.21 326.596 1184.27 326.596C1151.47 326.596 1126.07 316.587 1108.14 296.513L1108.14 296.51C1090.51 276.446 1081.74 248.009 1081.74 211.273C1081.74 174.537 1090.51 146.1 1108.14 126.036L1108.14 126.033C1126.07 105.96 1151.47 95.95 1184.27 95.95ZM1184.27 126.426C1174.44 126.426 1166.85 129.182 1161.42 134.637L1161.41 134.647L1161.41 134.646C1155.97 139.824 1151.91 148.508 1149.29 160.785C1146.68 173.053 1145.36 189.731 1145.36 210.833C1145.36 232.227 1146.67 249.198 1149.29 261.761L1149.54 262.902C1152.16 274.579 1156.13 283.035 1161.41 288.34C1167.14 293.807 1174.74 296.56 1184.27 296.56C1193.81 296.56 1201.26 293.807 1206.69 288.349L1206.7 288.34L1206.7 288.34C1212.44 282.865 1216.64 274.032 1219.26 261.761C1221.87 249.493 1223.19 232.669 1223.19 211.273C1223.19 189.877 1221.87 173.053 1219.26 160.785C1216.64 148.508 1212.58 139.824 1207.14 134.646L1207.13 134.637L1207.13 134.636C1201.7 129.182 1194.1 126.426 1184.27 126.426Z" stroke="#C9A35B"/>
<path opacity="0.35" d="M1057.82 273.294C1057.82 273.574 1057.73 273.888 1057.6 274.211C1057.46 274.543 1057.27 274.928 1057.01 275.361C1056.51 276.228 1055.76 277.326 1054.77 278.652C1052.78 281.307 1049.82 284.91 1045.88 289.459C1038.23 298.614 1026.93 307.155 1012.01 315.09L1012 315.093C997.027 322.763 978.697 326.586 957.036 326.586C914.015 326.586 881.162 313.645 858.563 287.7L858.563 287.698C835.983 261.48 824.721 225.716 824.721 180.468C824.721 150.496 829.84 124.173 840.093 101.513C850.348 78.847 865.301 61.3175 884.95 48.9434C904.603 36.5674 927.909 30.3896 954.847 30.3896C968.32 30.3897 981.503 32.1552 994.392 35.6865L994.391 35.6865C1007.53 38.9148 1018.79 42.5858 1028.16 46.7021C1032.98 48.6089 1036.6 50.0773 1039.01 51.1064C1040.22 51.6205 1041.13 52.0282 1041.75 52.3271C1042.05 52.4757 1042.29 52.603 1042.47 52.707C1042.55 52.7577 1042.63 52.8126 1042.7 52.8701C1042.73 52.8983 1042.78 52.9398 1042.82 52.9941C1042.85 53.0376 1042.93 53.1561 1042.93 53.3262L1042.93 53.374L1042.92 53.4199L1036.79 85.5352L1036.66 86.2246L1036.05 85.875C1034.04 84.7218 1029.11 82.5356 1021.22 79.3057L1021.21 79.3027L1021.21 79.2988C1013.35 75.7912 1003.89 72.4258 992.807 69.2041L992.803 69.2031C982.039 65.9885 971.869 64.3848 962.291 64.3848C946.015 64.3848 932.842 68.0339 922.731 75.2891C912.63 82.5376 904.942 94.4536 899.707 111.107C894.765 127.758 892.285 150.138 892.285 178.268C892.285 219.601 898.272 248.947 910.153 266.414C922.012 283.848 940.38 292.591 965.356 292.591C979.299 292.591 991.474 289.673 1001.9 283.855C1012.67 277.715 1021.23 271.148 1027.61 264.158L1027.61 264.157C1030.97 260.493 1033.48 257.643 1035.15 255.601C1035.98 254.579 1036.6 253.767 1037.01 253.163C1037.21 252.86 1037.36 252.619 1037.45 252.436C1037.55 252.234 1037.55 252.164 1037.55 252.177L1037.55 250.888L1038.42 251.84L1057.69 272.957L1057.82 273.101L1057.82 273.294Z" stroke="#C9A35B"/>
<path opacity="0.2" d="M775.953 100.806L775.953 321.773L716.709 321.773L716.709 100.806L775.953 100.806ZM746.55 0.5C755.426 0.5 762.811 3.15106 768.667 8.47363L769.229 8.99707L769.238 9.00488L769.246 9.01367C775.764 15.8593 779.019 24.3453 779.019 34.4355C779.018 44.8145 775.767 53.4475 769.246 60.2959L769.229 60.3135L769.212 60.3291C762.699 65.9801 755.137 68.8105 746.55 68.8105C737.668 68.8105 729.815 65.8315 723.011 59.8877L722.998 59.877L722.985 59.8643C716.172 53.0201 712.768 44.5324 712.768 34.4355C712.768 24.6273 716.176 16.2874 722.985 9.44629L722.994 9.4375C729.228 3.4733 737.093 0.500004 746.55 0.5Z" stroke="#242124"/>
<path opacity="0.2" d="M668.542 315.49C668.542 315.617 668.5 315.72 668.467 315.783C668.432 315.851 668.389 315.909 668.35 315.955C668.271 316.048 668.169 316.142 668.059 316.233C667.835 316.417 667.514 316.64 667.107 316.9C666.29 317.422 665.074 318.126 663.466 319.007C660.19 320.802 655.171 322.427 648.442 323.897C641.965 325.668 633.75 326.547 623.812 326.547C603.009 326.547 587.527 321.397 577.471 310.997C567.409 300.592 562.44 283.125 562.44 258.738L562.44 135.615L541.42 135.615L541.42 108.343L541.782 108.239L562.998 102.148L590.937 28.0344L591.06 27.7112L621.685 27.7112L621.685 100.74L669.856 100.74L669.856 135.615L621.685 135.615L621.685 243.78C621.685 257.547 622.267 268.069 623.427 275.362C624.879 282.36 627.041 287.226 629.855 290.056C632.655 292.579 636.603 293.872 641.767 293.872C647.573 293.872 652.786 293.288 657.41 292.127C659.743 291.541 661.484 291.067 662.638 290.705C663.217 290.524 663.633 290.374 663.899 290.257C664.035 290.197 664.111 290.156 664.146 290.132C664.163 290.12 664.151 290.126 664.129 290.152C664.111 290.173 664.039 290.264 664.039 290.412L665.034 290.344L668.537 315.42L668.542 315.454L668.542 315.49Z" stroke="#242124"/>
<path opacity="0.2" d="M424.265 95.9496C450.398 95.9496 470.986 105.989 485.975 126.066C500.948 146.122 508.408 173.075 508.408 206.873C508.408 230.678 504.897 251.712 497.864 269.964L497.863 269.966C490.829 287.928 480.706 301.94 467.483 311.976L467.482 311.977C454.541 321.728 439.104 326.596 421.199 326.596C409.781 326.596 400.091 325.273 392.144 322.613C384.247 320.262 378.214 317.753 374.07 315.078L374.06 315.071L374.05 315.064C372.003 313.595 370.456 312.411 369.417 311.517C368.899 311.071 368.494 310.686 368.216 310.367C368.077 310.207 367.96 310.052 367.874 309.905C367.869 309.896 367.865 309.887 367.86 309.878L367.396 309.878L367.396 431.726L366.911 431.741L308.667 433.5L308.152 433.516L308.152 100.788L355.85 100.788L355.975 101.104L363.732 120.586L364.361 120.586C364.373 120.565 364.384 120.544 364.396 120.525C364.492 120.365 364.627 120.186 364.79 119.994C365.118 119.606 365.599 119.114 366.225 118.523C367.164 117.634 368.452 116.5 370.085 115.121L371.833 113.661C376.852 109.216 383.764 105.234 392.548 101.704C401.382 97.8616 411.959 95.9496 424.265 95.9496ZM403.682 131.265C396.743 131.265 390.544 132.57 385.075 135.17C379.857 137.791 375.671 140.547 372.505 143.435C371.053 144.894 369.899 146.163 369.039 147.244C368.209 148.286 367.673 149.131 367.396 149.786L367.396 277.984C367.998 278.841 369.39 280.379 371.619 282.619C373.907 284.626 377.359 286.797 382 289.128C386.885 291.145 392.648 292.161 399.303 292.161C410.32 292.161 418.953 289.54 425.261 284.356L425.27 284.349C431.868 279.161 436.789 270.623 439.984 258.657C443.18 246.398 444.785 229.583 444.785 208.193C444.785 187.974 443.18 172.337 439.987 161.258L439.985 161.251L439.983 161.244C437.077 149.858 432.595 142.071 426.601 137.77L426.591 137.763C420.863 133.447 413.242 131.265 403.682 131.265Z" stroke="#242124"/>
<path opacity="0.2" d="M128.75 30.3896C170.324 30.3897 202.445 43.7779 225.038 70.6016L225.037 70.6016C247.907 97.1127 259.313 133.168 259.313 178.708C259.313 224.249 247.905 260.304 225.035 286.815L225.036 286.816C202.442 313.346 170.322 326.586 128.75 326.586C87.4708 326.586 55.4971 313.493 32.9033 287.259L32.8994 287.254C10.6138 260.742 -0.499994 224.54 -0.5 178.708C-0.5 132.876 10.6138 96.6742 32.8994 70.1621L32.9014 70.1592C55.4945 43.6305 87.4689 30.3896 128.75 30.3896ZM128.75 63.0654C117.873 63.0654 108.512 65.3595 100.646 69.9268C92.7807 74.4933 86.3826 81.3489 81.457 90.5176C71.8826 108.884 67.0645 138.256 67.0645 178.708C67.0645 219.456 71.8829 248.975 81.458 267.341L81.9102 268.18C86.6328 276.779 92.8059 283.245 100.424 287.598C108.289 292.092 117.725 294.351 128.75 294.351C139.922 294.351 149.468 292.092 157.406 287.597C165.342 283.103 171.702 276.359 176.479 267.341L176.481 267.338C186.347 248.974 191.312 219.457 191.312 178.708C191.312 138.253 186.347 108.882 176.481 90.5176C171.556 81.3499 165.122 74.4946 157.185 69.9277C149.246 65.36 139.774 63.0654 128.75 63.0654Z" stroke="#242124"/>
</svg>
